<mxfile host="app.diagrams.net" modified="2023-09-14T02:04:21.127Z" agent="Mozilla/5.0 (Windows NT 10.0; Win64; x64) AppleWebKit/537.36 (KHTML, like Gecko) Chrome/116.0.0.0 Safari/537.36" etag="DfItDoHuJf79W3qrtNrp" version="21.7.4" type="device">
  <diagram name="페이지-1" id="vGyAZrrm4px5WozFKD40">
    <mxGraphModel dx="1655" dy="855" grid="1" gridSize="10" guides="1" tooltips="1" connect="1" arrows="1" fold="1" page="1" pageScale="1" pageWidth="827" pageHeight="1169" math="0" shadow="0">
      <root>
        <mxCell id="0" />
        <mxCell id="1" parent="0" />
        <mxCell id="5jzRWB2JsN3by6aUExZs-15" value="데이터 ④" style="text;html=1;strokeColor=none;fillColor=none;align=center;verticalAlign=middle;whiteSpace=wrap;rounded=0;" parent="1" vertex="1">
          <mxGeometry x="540" y="150" width="80" height="30" as="geometry" />
        </mxCell>
        <mxCell id="5jzRWB2JsN3by6aUExZs-10" value="데이터&amp;nbsp;②" style="text;html=1;strokeColor=none;fillColor=none;align=center;verticalAlign=middle;whiteSpace=wrap;rounded=0;" parent="1" vertex="1">
          <mxGeometry x="380" y="60" width="80" height="30" as="geometry" />
        </mxCell>
        <mxCell id="5jzRWB2JsN3by6aUExZs-7" value="데이터&amp;nbsp;①" style="text;html=1;strokeColor=none;fillColor=none;align=center;verticalAlign=middle;whiteSpace=wrap;rounded=0;" parent="1" vertex="1">
          <mxGeometry x="170" y="60" width="80" height="30" as="geometry" />
        </mxCell>
        <mxCell id="5jzRWB2JsN3by6aUExZs-3" value="&lt;font style=&quot;font-size: 14px;&quot;&gt;yolov5s&lt;/font&gt;" style="rounded=1;whiteSpace=wrap;html=1;fillColor=#b0e3e6;strokeColor=#0e8088;" parent="1" vertex="1">
          <mxGeometry x="60" y="60" width="100" height="50" as="geometry" />
        </mxCell>
        <mxCell id="5jzRWB2JsN3by6aUExZs-4" value="" style="endArrow=classic;html=1;rounded=0;exitX=1;exitY=0.5;exitDx=0;exitDy=0;entryX=0;entryY=0.5;entryDx=0;entryDy=0;strokeColor=#FF0000;" parent="1" source="5jzRWB2JsN3by6aUExZs-3" target="5jzRWB2JsN3by6aUExZs-6" edge="1">
          <mxGeometry width="50" height="50" relative="1" as="geometry">
            <mxPoint x="390" y="160" as="sourcePoint" />
            <mxPoint x="240" y="85" as="targetPoint" />
          </mxGeometry>
        </mxCell>
        <mxCell id="5jzRWB2JsN3by6aUExZs-6" value="모델 A" style="rounded=0;whiteSpace=wrap;html=1;" parent="1" vertex="1">
          <mxGeometry x="260" y="60" width="110" height="50" as="geometry" />
        </mxCell>
        <mxCell id="5jzRWB2JsN3by6aUExZs-8" value="" style="endArrow=classic;html=1;rounded=0;exitX=1;exitY=0.5;exitDx=0;exitDy=0;entryX=0;entryY=0.5;entryDx=0;entryDy=0;strokeColor=#FF0000;" parent="1" edge="1">
          <mxGeometry width="50" height="50" relative="1" as="geometry">
            <mxPoint x="370" y="84.5" as="sourcePoint" />
            <mxPoint x="470" y="84.5" as="targetPoint" />
          </mxGeometry>
        </mxCell>
        <mxCell id="5jzRWB2JsN3by6aUExZs-9" value="모델 B" style="rounded=0;whiteSpace=wrap;html=1;" parent="1" vertex="1">
          <mxGeometry x="470" y="60" width="110" height="50" as="geometry" />
        </mxCell>
        <mxCell id="5jzRWB2JsN3by6aUExZs-11" value="" style="endArrow=classic;html=1;rounded=0;exitX=0.75;exitY=1;exitDx=0;exitDy=0;entryX=0;entryY=0.5;entryDx=0;entryDy=0;strokeColor=#FF0000;" parent="1" source="5jzRWB2JsN3by6aUExZs-6" target="5jzRWB2JsN3by6aUExZs-12" edge="1">
          <mxGeometry width="50" height="50" relative="1" as="geometry">
            <mxPoint x="390" y="160" as="sourcePoint" />
            <mxPoint x="390" y="180" as="targetPoint" />
            <Array as="points">
              <mxPoint x="343" y="175" />
            </Array>
          </mxGeometry>
        </mxCell>
        <mxCell id="5jzRWB2JsN3by6aUExZs-12" value="모델 C" style="rounded=0;whiteSpace=wrap;html=1;" parent="1" vertex="1">
          <mxGeometry x="420" y="150" width="110" height="50" as="geometry" />
        </mxCell>
        <mxCell id="5jzRWB2JsN3by6aUExZs-13" value="데이터&amp;nbsp;③" style="text;html=1;strokeColor=none;fillColor=none;align=center;verticalAlign=middle;whiteSpace=wrap;rounded=0;" parent="1" vertex="1">
          <mxGeometry x="340" y="150" width="80" height="30" as="geometry" />
        </mxCell>
        <mxCell id="5jzRWB2JsN3by6aUExZs-14" value="모델 D" style="rounded=0;whiteSpace=wrap;html=1;" parent="1" vertex="1">
          <mxGeometry x="630" y="150" width="110" height="50" as="geometry" />
        </mxCell>
        <mxCell id="5jzRWB2JsN3by6aUExZs-16" value="" style="endArrow=classic;html=1;rounded=0;exitX=1;exitY=0.5;exitDx=0;exitDy=0;entryX=0;entryY=0.5;entryDx=0;entryDy=0;strokeColor=#FF0000;" parent="1" edge="1">
          <mxGeometry width="50" height="50" relative="1" as="geometry">
            <mxPoint x="530" y="174.5" as="sourcePoint" />
            <mxPoint x="630" y="174.5" as="targetPoint" />
          </mxGeometry>
        </mxCell>
        <mxCell id="5jzRWB2JsN3by6aUExZs-18" value="" style="endArrow=classic;html=1;rounded=0;exitX=0.276;exitY=1.01;exitDx=0;exitDy=0;exitPerimeter=0;entryX=0;entryY=0.5;entryDx=0;entryDy=0;strokeColor=#3333FF;" parent="1" target="5jzRWB2JsN3by6aUExZs-19" edge="1">
          <mxGeometry width="50" height="50" relative="1" as="geometry">
            <mxPoint x="290.3599999999999" y="110" as="sourcePoint" />
            <mxPoint x="430" y="249.5" as="targetPoint" />
            <Array as="points">
              <mxPoint x="290" y="244.5" />
            </Array>
          </mxGeometry>
        </mxCell>
        <mxCell id="5jzRWB2JsN3by6aUExZs-19" value="모델 Df" style="rounded=0;whiteSpace=wrap;html=1;" parent="1" vertex="1">
          <mxGeometry x="420" y="219.5" width="110" height="50" as="geometry" />
        </mxCell>
        <mxCell id="5jzRWB2JsN3by6aUExZs-20" value="데이터&amp;nbsp;③,④" style="text;html=1;strokeColor=none;fillColor=none;align=center;verticalAlign=middle;whiteSpace=wrap;rounded=0;" parent="1" vertex="1">
          <mxGeometry x="310" y="219.5" width="80" height="30" as="geometry" />
        </mxCell>
        <mxCell id="5jzRWB2JsN3by6aUExZs-22" value="" style="endArrow=classic;html=1;rounded=0;exitX=0.276;exitY=1.01;exitDx=0;exitDy=0;exitPerimeter=0;strokeColor=#3333FF;entryX=0;entryY=0.5;entryDx=0;entryDy=0;" parent="1" target="5jzRWB2JsN3by6aUExZs-23" edge="1">
          <mxGeometry width="50" height="50" relative="1" as="geometry">
            <mxPoint x="130" y="110" as="sourcePoint" />
            <mxPoint x="260" y="310" as="targetPoint" />
            <Array as="points">
              <mxPoint x="130" y="315" />
            </Array>
          </mxGeometry>
        </mxCell>
        <mxCell id="5jzRWB2JsN3by6aUExZs-23" value="모델 Df2" style="rounded=0;whiteSpace=wrap;html=1;" parent="1" vertex="1">
          <mxGeometry x="260" y="290" width="110" height="50" as="geometry" />
        </mxCell>
        <mxCell id="5jzRWB2JsN3by6aUExZs-24" value="데이터&amp;nbsp;①,③,④" style="text;html=1;strokeColor=none;fillColor=none;align=center;verticalAlign=middle;whiteSpace=wrap;rounded=0;" parent="1" vertex="1">
          <mxGeometry x="140" y="290" width="110" height="30" as="geometry" />
        </mxCell>
        <mxCell id="5jzRWB2JsN3by6aUExZs-26" value="" style="endArrow=classic;html=1;rounded=0;exitX=0.276;exitY=1.01;exitDx=0;exitDy=0;exitPerimeter=0;strokeColor=#FF0000;entryX=0;entryY=0.5;entryDx=0;entryDy=0;" parent="1" target="5jzRWB2JsN3by6aUExZs-27" edge="1">
          <mxGeometry width="50" height="50" relative="1" as="geometry">
            <mxPoint x="90" y="110" as="sourcePoint" />
            <mxPoint x="220" y="305" as="targetPoint" />
            <Array as="points">
              <mxPoint x="90" y="385" />
            </Array>
          </mxGeometry>
        </mxCell>
        <mxCell id="5jzRWB2JsN3by6aUExZs-27" value="모델 F" style="rounded=0;whiteSpace=wrap;html=1;" parent="1" vertex="1">
          <mxGeometry x="260" y="360" width="110" height="50" as="geometry" />
        </mxCell>
        <mxCell id="5jzRWB2JsN3by6aUExZs-28" value="데이터&amp;nbsp;①, ②,③, ④,⑤" style="text;html=1;strokeColor=none;fillColor=none;align=center;verticalAlign=middle;whiteSpace=wrap;rounded=0;" parent="1" vertex="1">
          <mxGeometry x="104" y="360" width="130" height="30" as="geometry" />
        </mxCell>
        <mxCell id="5jzRWB2JsN3by6aUExZs-30" value="&lt;font style=&quot;&quot;&gt;&lt;font style=&quot;font-size: 18px;&quot; color=&quot;#ff0000&quot;&gt;→ &lt;/font&gt;&lt;font style=&quot;font-size: 14px;&quot;&gt;: 전체 학습&lt;/font&gt;&lt;br&gt;&lt;font style=&quot;font-size: 18px;&quot; color=&quot;#0000ff&quot;&gt;→ &lt;/font&gt;&lt;font style=&quot;font-size: 14px;&quot;&gt;: 부분 학습&lt;/font&gt;&lt;/font&gt;" style="rounded=0;whiteSpace=wrap;html=1;dashed=1;dashPattern=1 4;strokeColor=none;" parent="1" vertex="1">
          <mxGeometry x="840" y="45" width="120" height="60" as="geometry" />
        </mxCell>
        <mxCell id="5jzRWB2JsN3by6aUExZs-31" value="&lt;font style=&quot;font-size: 14px;&quot;&gt;yolov5m&lt;/font&gt;" style="rounded=1;whiteSpace=wrap;html=1;fillColor=#b0e3e6;strokeColor=#0e8088;" parent="1" vertex="1">
          <mxGeometry x="60" y="520" width="100" height="50" as="geometry" />
        </mxCell>
        <mxCell id="5jzRWB2JsN3by6aUExZs-33" value="" style="endArrow=classic;html=1;rounded=0;exitX=1;exitY=0.5;exitDx=0;exitDy=0;strokeColor=#FF0000;entryX=0;entryY=0.5;entryDx=0;entryDy=0;" parent="1" target="5jzRWB2JsN3by6aUExZs-34" edge="1">
          <mxGeometry width="50" height="50" relative="1" as="geometry">
            <mxPoint x="160" y="545" as="sourcePoint" />
            <mxPoint x="260" y="545" as="targetPoint" />
          </mxGeometry>
        </mxCell>
        <mxCell id="5jzRWB2JsN3by6aUExZs-34" value="모델 G" style="rounded=0;whiteSpace=wrap;html=1;" parent="1" vertex="1">
          <mxGeometry x="330" y="520" width="110" height="50" as="geometry" />
        </mxCell>
        <mxCell id="5jzRWB2JsN3by6aUExZs-36" value="&lt;font style=&quot;font-size: 14px;&quot;&gt;yolov5n&lt;/font&gt;" style="rounded=1;whiteSpace=wrap;html=1;fillColor=#b0e3e6;strokeColor=#0e8088;" parent="1" vertex="1">
          <mxGeometry x="60" y="450" width="100" height="50" as="geometry" />
        </mxCell>
        <mxCell id="5jzRWB2JsN3by6aUExZs-38" value="" style="endArrow=classic;html=1;rounded=0;exitX=1;exitY=0.5;exitDx=0;exitDy=0;strokeColor=#FF0000;entryX=0;entryY=0.5;entryDx=0;entryDy=0;" parent="1" target="5jzRWB2JsN3by6aUExZs-39" edge="1">
          <mxGeometry width="50" height="50" relative="1" as="geometry">
            <mxPoint x="160" y="475" as="sourcePoint" />
            <mxPoint x="260" y="475" as="targetPoint" />
          </mxGeometry>
        </mxCell>
        <mxCell id="5jzRWB2JsN3by6aUExZs-39" value="모델 E" style="rounded=0;whiteSpace=wrap;html=1;" parent="1" vertex="1">
          <mxGeometry x="330" y="450" width="110" height="50" as="geometry" />
        </mxCell>
        <mxCell id="5jzRWB2JsN3by6aUExZs-42" value="데이터&amp;nbsp;①, ②,③, ④,⑤" style="text;html=1;strokeColor=none;fillColor=none;align=center;verticalAlign=middle;whiteSpace=wrap;rounded=0;" parent="1" vertex="1">
          <mxGeometry x="175" y="520" width="130" height="30" as="geometry" />
        </mxCell>
        <mxCell id="5jzRWB2JsN3by6aUExZs-43" value="데이터&amp;nbsp;①, ②,③, ④,⑤" style="text;html=1;strokeColor=none;fillColor=none;align=center;verticalAlign=middle;whiteSpace=wrap;rounded=0;" parent="1" vertex="1">
          <mxGeometry x="175" y="450" width="130" height="30" as="geometry" />
        </mxCell>
        <mxCell id="nZzLPIIazuhUGgadUep4-1" value="&lt;font style=&quot;font-size: 14px;&quot;&gt;yolov8m&lt;/font&gt;" style="rounded=1;whiteSpace=wrap;html=1;fillColor=#dae8fc;strokeColor=#6c8ebf;" vertex="1" parent="1">
          <mxGeometry x="580" y="520" width="100" height="50" as="geometry" />
        </mxCell>
        <mxCell id="nZzLPIIazuhUGgadUep4-2" value="" style="endArrow=classic;html=1;rounded=0;exitX=1;exitY=0.5;exitDx=0;exitDy=0;strokeColor=#FF0000;entryX=0;entryY=0.5;entryDx=0;entryDy=0;" edge="1" parent="1" target="nZzLPIIazuhUGgadUep4-3">
          <mxGeometry width="50" height="50" relative="1" as="geometry">
            <mxPoint x="680" y="545" as="sourcePoint" />
            <mxPoint x="780" y="545" as="targetPoint" />
          </mxGeometry>
        </mxCell>
        <mxCell id="nZzLPIIazuhUGgadUep4-3" value="모델 J" style="rounded=0;whiteSpace=wrap;html=1;" vertex="1" parent="1">
          <mxGeometry x="850" y="520" width="110" height="50" as="geometry" />
        </mxCell>
        <mxCell id="nZzLPIIazuhUGgadUep4-4" value="&lt;font style=&quot;font-size: 14px;&quot;&gt;yolov8s&lt;/font&gt;" style="rounded=1;whiteSpace=wrap;html=1;fillColor=#dae8fc;strokeColor=#6c8ebf;" vertex="1" parent="1">
          <mxGeometry x="580" y="450" width="100" height="50" as="geometry" />
        </mxCell>
        <mxCell id="nZzLPIIazuhUGgadUep4-5" value="" style="endArrow=classic;html=1;rounded=0;exitX=1;exitY=0.5;exitDx=0;exitDy=0;strokeColor=#FF0000;entryX=0;entryY=0.5;entryDx=0;entryDy=0;" edge="1" parent="1" target="nZzLPIIazuhUGgadUep4-6">
          <mxGeometry width="50" height="50" relative="1" as="geometry">
            <mxPoint x="680" y="475" as="sourcePoint" />
            <mxPoint x="780" y="475" as="targetPoint" />
          </mxGeometry>
        </mxCell>
        <mxCell id="nZzLPIIazuhUGgadUep4-6" value="모델 I" style="rounded=0;whiteSpace=wrap;html=1;" vertex="1" parent="1">
          <mxGeometry x="850" y="450" width="110" height="50" as="geometry" />
        </mxCell>
        <mxCell id="nZzLPIIazuhUGgadUep4-7" value="데이터&amp;nbsp;①, ②,③, ④,⑤" style="text;html=1;strokeColor=none;fillColor=none;align=center;verticalAlign=middle;whiteSpace=wrap;rounded=0;" vertex="1" parent="1">
          <mxGeometry x="695" y="520" width="130" height="30" as="geometry" />
        </mxCell>
        <mxCell id="nZzLPIIazuhUGgadUep4-8" value="데이터&amp;nbsp;①, ②,③, ④,⑤" style="text;html=1;strokeColor=none;fillColor=none;align=center;verticalAlign=middle;whiteSpace=wrap;rounded=0;" vertex="1" parent="1">
          <mxGeometry x="695" y="450" width="130" height="30" as="geometry" />
        </mxCell>
        <mxCell id="nZzLPIIazuhUGgadUep4-11" value="&lt;font style=&quot;font-size: 14px;&quot;&gt;yolov8n&lt;/font&gt;" style="rounded=1;whiteSpace=wrap;html=1;fillColor=#dae8fc;strokeColor=#6c8ebf;" vertex="1" parent="1">
          <mxGeometry x="580" y="380" width="100" height="50" as="geometry" />
        </mxCell>
        <mxCell id="nZzLPIIazuhUGgadUep4-12" value="" style="endArrow=classic;html=1;rounded=0;exitX=1;exitY=0.5;exitDx=0;exitDy=0;strokeColor=#FF0000;entryX=0;entryY=0.5;entryDx=0;entryDy=0;" edge="1" parent="1" target="nZzLPIIazuhUGgadUep4-13">
          <mxGeometry width="50" height="50" relative="1" as="geometry">
            <mxPoint x="680" y="405" as="sourcePoint" />
            <mxPoint x="780" y="405" as="targetPoint" />
          </mxGeometry>
        </mxCell>
        <mxCell id="nZzLPIIazuhUGgadUep4-13" value="모델 H" style="rounded=0;whiteSpace=wrap;html=1;fillColor=#fff2cc;strokeColor=#d6b656;" vertex="1" parent="1">
          <mxGeometry x="850" y="380" width="110" height="50" as="geometry" />
        </mxCell>
        <mxCell id="nZzLPIIazuhUGgadUep4-14" value="데이터&amp;nbsp;①, ②,③, ④,⑤" style="text;html=1;strokeColor=none;fillColor=none;align=center;verticalAlign=middle;whiteSpace=wrap;rounded=0;" vertex="1" parent="1">
          <mxGeometry x="695" y="380" width="130" height="30" as="geometry" />
        </mxCell>
        <mxCell id="nZzLPIIazuhUGgadUep4-15" value="" style="verticalLabelPosition=bottom;verticalAlign=top;html=1;shape=mxgraph.basic.tick;fillColor=#FF3333;" vertex="1" parent="1">
          <mxGeometry x="950" y="370" width="17.5" height="20" as="geometry" />
        </mxCell>
        <mxCell id="nZzLPIIazuhUGgadUep4-16" value="&lt;b&gt;&lt;font style=&quot;font-size: 13px;&quot;&gt;최종 모델&lt;/font&gt;&lt;/b&gt;" style="text;html=1;strokeColor=none;fillColor=none;align=center;verticalAlign=middle;whiteSpace=wrap;rounded=0;" vertex="1" parent="1">
          <mxGeometry x="965" y="370" width="60" height="30" as="geometry" />
        </mxCell>
      </root>
    </mxGraphModel>
  </diagram>
</mxfile>
